<?xml version="1.0" encoding="UTF-8"?><svg id="Layer_2" xmlns="http://www.w3.org/2000/svg" viewBox="0 0 362.82 51.78"><defs><style>.cls-1{fill:#020873;fill-rule:evenodd;}</style></defs><g id="top"><polygon class="cls-1" points="84.98 51.78 100.82 51.78 100.82 23.47 84.98 32.49 84.98 51.78"/><polygon class="cls-1" points="85.01 17.71 100.84 8.69 100.84 0 85.01 0 85.01 17.71"/><polygon class="cls-1" points="300.94 0 300.94 12.81 324 12.81 324 51.78 339.76 51.78 339.76 12.81 362.82 12.81 362.82 0 300.94 0"/><polygon class="cls-1" points="136.43 12.81 136.43 12.81 136.43 51.78 152.19 51.78 152.19 12.81 172.33 12.81 172.33 51.78 188.09 51.78 188.09 12.81 208.23 12.81 208.23 51.78 223.99 51.78 223.99 12.81 223.99 5.92 223.99 0 136.43 0 136.43 12.81"/><polygon class="cls-1" points="29.12 0 0 51.78 17.82 51.78 22.82 42.55 23.14 41.93 40.54 41.93 31.53 26.11 39.47 11.12 61.38 51.78 78.55 51.78 50.23 0 29.12 0"/><polygon class="cls-1" points="261.21 0 232.1 51.78 249.92 51.78 254.92 42.55 255.24 41.93 272.74 41.93 263.72 26.09 263.63 26.09 271.57 11.12 293.47 51.78 310.65 51.78 282.33 0 261.21 0"/></g></svg>