<?xml version="1.0" encoding="UTF-8"?><svg id="Layer_2" xmlns="http://www.w3.org/2000/svg" viewBox="0 0 362.82 67.61"><defs><style>.cls-1,.cls-2{fill:#8086f2;}.cls-2{fill-rule:evenodd;}</style></defs><g id="top"><polygon class="cls-2" points="84.98 51.78 100.82 51.78 100.82 23.47 84.98 32.49 84.98 51.78"/><polygon class="cls-2" points="85.01 17.71 100.84 8.69 100.84 0 85.01 0 85.01 17.71"/><polygon class="cls-2" points="300.94 0 300.94 12.81 324 12.81 324 51.78 339.76 51.78 339.76 12.81 362.82 12.81 362.82 0 300.94 0"/><polygon class="cls-2" points="136.43 12.81 136.43 12.81 136.43 51.78 152.19 51.78 152.19 12.81 172.33 12.81 172.33 51.78 188.09 51.78 188.09 12.81 208.23 12.81 208.23 51.78 223.99 51.78 223.99 12.81 223.99 5.92 223.99 0 136.43 0 136.43 12.81"/><polygon class="cls-2" points="29.12 0 0 51.78 17.82 51.78 22.82 42.55 23.14 41.93 40.54 41.93 31.53 26.11 39.47 11.12 61.38 51.78 78.55 51.78 50.23 0 29.12 0"/><polygon class="cls-2" points="261.21 0 232.1 51.78 249.92 51.78 254.92 42.55 255.24 41.93 272.74 41.93 263.72 26.09 263.63 26.09 271.57 11.12 293.47 51.78 310.65 51.78 282.33 0 261.21 0"/><path class="cls-1" d="M144.37,67.49v-5.72s-2.85,4.73-2.85,4.73h-.71l-2.83-4.66v5.64h-1.53v-8.63h1.32l3.43,5.72,3.36-5.72h1.32v8.63s-1.5,0-1.5,0Z"/><path class="cls-1" d="M154.3,65.49h-4.31l-.85,2h-1.65l3.88-8.63h1.58l3.89,8.63h-1.68l-.86-2ZM153.77,64.24l-1.63-3.77-1.61,3.77h3.24Z"/><path class="cls-1" d="M159.76,60.22h-2.86v-1.36h7.32v1.36h-2.86v7.27h-1.6v-7.27Z"/><path class="cls-1" d="M172.39,66.15v1.34h-6.47v-8.63h6.3v1.34h-4.7v2.24h4.17v1.32h-4.17v2.38h4.87Z"/><path class="cls-1" d="M182.6,67.49v-5.72s-2.85,4.73-2.85,4.73h-.71l-2.83-4.66v5.64h-1.53v-8.63h1.32l3.43,5.72,3.36-5.72h1.32v8.63s-1.5,0-1.5,0Z"/><path class="cls-1" d="M192.54,65.49h-4.31l-.85,2h-1.65l3.88-8.63h1.58l3.89,8.63h-1.68l-.86-2ZM192.01,64.24l-1.63-3.77-1.61,3.77h3.24Z"/><path class="cls-1" d="M197.99,60.22h-2.86v-1.36h7.32v1.36h-2.86v7.27h-1.6v-7.27Z"/><path class="cls-1" d="M204.16,58.86h1.6v8.63h-1.6v-8.63Z"/><path class="cls-1" d="M211.56,63.88l-1.37,1.4v2.21h-1.6v-8.63h1.6v4.42l4.26-4.42h1.8l-3.62,3.86,3.84,4.77h-1.87l-3.04-3.61Z"/><path class="cls-1" d="M221.04,63.88l-1.37,1.4v2.21h-1.6v-8.63h1.6v4.42l4.26-4.42h1.8l-3.62,3.86,3.84,4.77h-1.87l-3.04-3.61Z"/><path class="cls-1" d="M234.02,66.15v1.34h-6.47v-8.63h6.3v1.34h-4.7v2.24h4.17v1.32h-4.17v2.38h4.87Z"/><path class="cls-1" d="M243.97,58.86v8.63h-1.32l-4.76-5.84v5.84h-1.59v-8.63h1.32l4.76,5.84v-5.84h1.59Z"/><path class="cls-1" d="M260.07,65.15c0,1.48-1.16,2.34-3.38,2.34h-4.29v-8.63h4.04c2.07,0,3.18.88,3.18,2.24,0,.89-.44,1.54-1.11,1.9.92.3,1.55,1.02,1.55,2.14ZM254.01,60.12v2.38h2.27c1.11,0,1.74-.39,1.74-1.18s-.63-1.2-1.74-1.2h-2.27ZM258.46,64.99c0-.86-.65-1.25-1.86-1.25h-2.59v2.49h2.59c1.21,0,1.86-.38,1.86-1.24Z"/><path class="cls-1" d="M267.88,65.49h-4.31l-.85,2h-1.65l3.88-8.63h1.58l3.89,8.63h-1.68l-.86-2ZM267.35,64.24l-1.63-3.77-1.61,3.77h3.24Z"/><path class="cls-1" d="M277.78,63.08h1.52v3.44c-.9.73-2.16,1.1-3.38,1.1-2.67,0-4.65-1.86-4.65-4.44s1.97-4.44,4.67-4.44c1.44,0,2.65.48,3.46,1.4l-1.01.99c-.68-.68-1.45-.99-2.38-.99-1.84,0-3.13,1.25-3.13,3.03s1.29,3.03,3.12,3.03c.62,0,1.22-.12,1.78-.44v-2.69Z"/><path class="cls-1" d="M294.95,67.49v-5.72s-2.85,4.73-2.85,4.73h-.71l-2.83-4.66v5.64h-1.53v-8.63h1.32l3.43,5.72,3.36-5.72h1.32v8.63s-1.5,0-1.5,0Z"/><path class="cls-1" d="M304.89,65.49h-4.31l-.85,2h-1.65l3.88-8.63h1.58l3.89,8.63h-1.68l-.86-2ZM304.36,64.24l-1.63-3.77-1.61,3.77h3.24Z"/><path class="cls-1" d="M314.79,63.08h1.52v3.44c-.9.73-2.16,1.1-3.38,1.1-2.67,0-4.65-1.86-4.65-4.44s1.97-4.44,4.67-4.44c1.44,0,2.65.48,3.46,1.4l-1.01.99c-.68-.68-1.45-.99-2.38-.99-1.84,0-3.13,1.25-3.13,3.03s1.29,3.03,3.12,3.03c.62,0,1.22-.12,1.78-.44v-2.69Z"/><path class="cls-1" d="M318.92,58.86h1.6v8.63h-1.6v-8.63Z"/><path class="cls-1" d="M329.81,66.15v1.34h-6.47v-8.63h6.3v1.34h-4.7v2.24h4.17v1.32h-4.17v2.38h4.87Z"/><path class="cls-1" d="M339.76,58.86v8.63h-1.32l-4.76-5.84v5.84h-1.59v-8.63h1.32l4.76,5.84v-5.84h1.59Z"/></g></svg>